<?xml version="1.0" standalone="no"?><!DOCTYPE svg PUBLIC "-//W3C//DTD SVG 1.1//EN" "http://www.w3.org/Graphics/SVG/1.1/DTD/svg11.dtd"><svg t="1691499572784" class="icon" viewBox="0 0 1024 1024" version="1.1" xmlns="http://www.w3.org/2000/svg" p-id="1622" data-spm-anchor-id="a313x.search_index.0.i5.5d7a3a81oD6lTE" xmlns:xlink="http://www.w3.org/1999/xlink" width="200" height="200"><path d="M512 11.636364C235.659636 11.636364 11.636364 235.659636 11.636364 512S235.659636 1012.363636 512 1012.363636 1012.363636 788.340364 1012.363636 512c0-34.350545-3.444364-68.235636-10.24-101.376-7.447273-36.165818-58.693818-37.515636-68.002909-1.768727a261.306182 261.306182 0 1 1-318.976-318.976c35.746909-9.309091 34.397091-60.509091-1.768727-67.956364C580.235636 15.080727 546.350545 11.636364 512 11.636364z m-36.026182 71.261091l-3.909818 3.118545a331.124364 331.124364 0 0 0 209.175273 587.869091l12.241454-0.279273a331.124364 331.124364 0 0 0 244.503273-121.669818l3.072-3.956364-0.093091 1.163637A430.545455 430.545455 0 1 1 462.661818 84.247273l13.312-1.349818z" fill="#10b981" p-id="1623"></path></svg>